<svg id="Layer_1" data-name="Layer 1" xmlns="http://www.w3.org/2000/svg" viewBox="0 0 131 34"><defs><style>.cls-1{fill:#7024e4;fill-rule:evenodd;}</style></defs><title>Artboard 1</title><path class="cls-1" d="M118.78,14.43l-1.45,1.91L121,17.4c0,.12-.09.24-.13.37a34.81,34.81,0,0,0-4-.18c-.33,0-.92.82-1.39,1.28-.22.22-.52.7-.64.69a11.6,11.6,0,0,0-3.4,0c0,.32.1.63.22,1.35-1,0-1.91-.05-2.77-.1s-1.78-.19-2.71-.2c-.72,0-1.5.21-2.23.23-1,0-1.8-.61-3.15.36-.41.31-.7-.55-1.16-.5s-1.25.66-1.82.8S96,23,95.92,21.88l-2.08.8.9.6-.15.56c-.93.2-1.86.42-2.78.59q-1.71.33-3.42.6c-.51.08-1,.13-1.52.16l-3.26.23c-.44,0-.9.09-1.34.13L82,26.3c.69.13,1.37.27,2.06.42L84,27a10.55,10.55,0,0,1-2.61.31c-.27,0-.2-1-.28-1.55-.89.95-1.92,1.72-2.85,1.06-.51-.36-1.67.6-2.52.91A2.56,2.56,0,0,1,74.5,28c-.79-.19-1.39-1.36-2.65,1.64l1.28.29c0,.12-.07.24-.1.36-.65.13-1.31.3-1.94.37-1.71.18-3.54.65-5.08.37s-3.46,1.11-4.62-.17c-.55-.6-1.78.06-2.67.06-1.67,0-3.3-.13-5-.12-1.9,0-3.58-.59-5.86.56-1.21.61-2.27.34-3.37.39-2.35.08-4.55-.36-7,.31a11.28,11.28,0,0,1-4.53.14c-.52-.06-1.23.39-1.82.48a55.54,55.54,0,0,1-6.51.75A15.47,15.47,0,0,1,21,32.55a3,3,0,0,0-1.29.08c-1.59.32-2.64-.76-4.09-.8A30.69,30.69,0,0,1,12,31.58c-.4,0-1,0-.28-1.55.09-.18,0-.79-.19-.82-1.66-.21-3.34-.36-5-.47-.27,0-.65.29-1,.16l1.13-1.53C6.05,27,5.48,26.6,5,26.17s-1.28-.67-1.54-1.5c-.31-1.05-1.47-1-1-3.14,0-.13-.13-.28-.26-.28-1,0-1.12-.77,0-2.68L1,18.45c1.69-3.21,2.14-4.66,1.82-4.92,1-3.89,2-7.51,2.91-11l1.31.59C7.07,4,4.92,4.62,5.78,6c.19-.33.41-.71.7-1.25C6.46,6.32,7,6.41,8.09,6a24.87,24.87,0,0,1,4.85-.79c1.08-.18,2.21-.51,3.29-.69a9.83,9.83,0,0,1,3.41-.36c2,.45,4.44-.79,6.55-.88s4.4-.14,6.65-.36c2-.2,4-.8,6-.89,2.58-.13,5,.09,7.59.09,1.91,0,3.87-.14,5.8-.2,2.59-.07,5.22-.26,7.75-.17a61.32,61.32,0,0,1,9,.8c2,.39,4.32-.09,6.42,0,1.45.09,2.83.34,4.27.48q3.9.39,7.82.71c2.19.17,4.41.26,6.58.47,1.07.1,2.06.44,3.11.61.82.12,1.69.14,2.53.21,2.12.18,4.25.34,6.35.59.32,0,.48.53.8.5,1.11.17,2.22.32,3.31.5.43.08.78.41,1.25.28a2.47,2.47,0,0,1,2.34.53c.5.41,1.39,0,2,.17,1.19.28,2.28.8,3.49,1s2.49.11,3.71.24a11.46,11.46,0,0,1,1.94.48c1.27.33,2.55.62,3.78,1a4.89,4.89,0,0,1,1.25.9l-.21.49a7.84,7.84,0,0,1-1.55-.26c-.91-.34-1.74-.88-2.68-1.15-.37-.1-1,.45-1.41.42-1.87-.14-3.7-.39-5.56-.56a8,8,0,0,0-2.07,0c-1.54.26-2.41-.91-3.54-1.54-.18-.11-.5.07-.88.14,0-.17-.08-.59-.16-1.2-.51,1.32-.72,2.31-1.45,1.51s-2-.49-3.08-.73c-.26-.07-.44-.37-.66-.56-1.06,1.67-2.73,2.45-3.39,1.47-.27-.39-.4-.92-1.05-.43-.14.11-.3-.2-.36-.44a6.4,6.4,0,0,1,0-1c-.24.38-.45.78-.7,1.12a7.6,7.6,0,0,1-.78.8c0-.82.09-1.54.13-2.26-1.55,1.33-2.12-1.59-4,1.4-.74-.1-1.47-.22-2.21-.27-.11,0-.34.34-.51.52.12.25.17.67.37.71.94.19,1.93.23,2.88.39,1.76.3,3.48.71,5.26.95,1.41.19,2.92.08,4.31.31a12.26,12.26,0,0,1,3.27,1c.86.4,1.47,1.39,2.41,1.58,1.17.23,2.61-.22,3.86-.15a11.73,11.73,0,0,1,2.66.8M87,5.42,83.46,8.15a30.25,30.25,0,0,0,5,.86c1.65,0,3.13.68,5,0l.21-.62-7.56-.85c.19-.45.39-.94.88-2.16M83.39,8c.07-.19.13-.39.2-.58L80,7.32c.32,1.25,2.42,1.48,3.36.63M58.81,7.67l3.57-.94.1-.31L59.14,6c-.2,1-.31,1.52-.33,1.63m6.85-1.16c.25,1.29,2.08,1.25,3.45,0l-3.45,0M75.42,7.8c.08-.23.16-.47.25-.71l-2.6-.25c-.14.37-.27.74-.4,1.11l2.75-.15M58.53,6.71l.19-.63-2.94.09-.23.7,3-.16M5.15,10.85l-.23-.34-1.64,2c0,.19,0,.39,0,.58.34-.18.71-.22,1-.58a10.92,10.92,0,0,0,.91-1.68"/></svg>